<?xml version="1.0" encoding="UTF-8"?>
<svg width="200px" height="63px" viewBox="0 0 200 63" version="1.1" xmlns="http://www.w3.org/2000/svg" xmlns:xlink="http://www.w3.org/1999/xlink">
    <title>Artboard</title>
    <g id="Artboard" stroke="none" stroke-width="1" fill="none" fill-rule="evenodd">
        <g id="logo" fill-rule="nonzero">
            <g id="Group" transform="translate(66.998401, 15.732163)" fill="#FFFFFF">
                <polygon id="Path" points="78.6920206 6.81370328 78.6920206 2.53477873e-15 64.652568 2.53477873e-15 60.5651324 2.53477873e-15 57.8638706 2.53477873e-15 56.9752977 2.53477873e-15 49.4046561 2.53477873e-15 42.5448729 10.880521 35.0097743 2.53477873e-15 27.1903323 2.53477873e-15 26.3017594 2.53477873e-15 19.513062 2.53477873e-15 19.513062 12.3431484 7.6772703 12.3431484 7.6772703 2.53477873e-15 0 2.53477873e-15 0 31.5356738 7.6772703 31.5356738 7.6772703 19.299547 19.513062 19.299547 19.513062 31.5356738 27.1903323 31.5356738 27.1903323 1.28425821 38.6706949 17.5872027 38.6706949 31.5356738 46.3835081 31.5356738 46.3835081 17.4801812 56.9752977 1.39127973 56.9752977 31.5356738 64.652568 31.5356738 64.652568 19.4779162 76.9148747 19.4779162 76.9148747 13.0209513 64.652568 13.0209513 64.652568 6.81370328"></polygon>
                <path d="M116.545228,0 L116.545228,7.52718007 C116.545228,8.52604757 116.545228,9.41789354 116.545228,10.3097395 L116.545228,19.2638732 L102.399147,0 L95.5393638,0 L95.5393638,31.5356738 L98.5605118,31.5356738 L103.038919,31.5356738 L103.038919,21.1902605 L103.038919,12.6285391 L117.042829,31.5356738 L124.009241,31.5356738 L124.009241,0 L116.545228,0 Z" id="Path"></path>
                <g transform="translate(126.746046, 0.000000)" id="Shape">
                    <path d="M1.99040341,1.60532276 L3.41212014,1.60532276 C3.66092056,1.60532276 3.83863515,1.6409966 3.98080682,1.71234428 C4.26515017,1.85503964 4.40732184,2.10475651 4.40732184,2.4614949 C4.40732184,2.6398641 4.37177892,2.78255946 4.30069309,2.92525481 C4.22960725,3.03227633 4.1229785,3.13929785 3.98080682,3.21064553 C4.08743558,3.24631937 4.19406433,3.31766704 4.26515017,3.38901472 C4.336236,3.4603624 4.37177892,3.60305776 4.37177892,3.78142695 L4.37177892,4.20951302 C4.37177892,4.31653454 4.37177892,4.42355606 4.40732184,4.4592299 C4.44286476,4.56625142 4.47840768,4.63759909 4.54949351,4.63759909 L4.54949351,4.70894677 L4.05189266,4.70894677 C4.05189266,4.67327293 4.01634974,4.63759909 4.01634974,4.60192525 C4.01634974,4.56625142 4.01634974,4.49490374 3.98080682,4.35220838 L3.94526391,3.81710079 C3.94526391,3.60305776 3.87417807,3.4603624 3.7320064,3.42468856 C3.66092056,3.38901472 3.51874889,3.35334088 3.37657722,3.35334088 L2.45246135,3.35334088 L2.45246135,4.67327293 L2.02594633,4.67327293 L2.02594633,1.60532276 L1.99040341,1.60532276 Z M3.3410343,3.03227633 C3.51874889,3.03227633 3.69646348,2.99660249 3.80309223,2.92525481 C3.90972099,2.85390713 3.98080682,2.71121178 3.98080682,2.49716874 C3.98080682,2.28312571 3.90972099,2.14043035 3.7320064,2.03340883 C3.66092056,1.99773499 3.55429181,1.96206116 3.41212014,1.96206116 L2.41691843,1.96206116 L2.41691843,3.03227633 L3.3410343,3.03227633 Z"></path>
                    <path d="M3.12777679,6.2785957 C1.42171672,6.2785957 0,4.88731597 0,3.13929785 C0,1.42695357 1.3861738,0 3.12777679,0 C4.83383686,0 6.25555358,1.39127973 6.25555358,3.13929785 C6.22001066,4.85164213 4.83383686,6.2785957 3.12777679,6.2785957 Z M3.12777679,0.356738392 C1.59943131,0.356738392 0.355429181,1.60532276 0.355429181,3.13929785 C0.355429181,4.67327293 1.59943131,5.9218573 3.12777679,5.9218573 C4.65612227,5.9218573 5.9001244,4.67327293 5.9001244,3.13929785 C5.9001244,1.60532276 4.65612227,0.356738392 3.12777679,0.356738392 Z"></path>
                </g>
                <rect id="Rectangle" x="83.277057" y="2.53477873e-15" width="7.6772703" height="31.5356738"></rect>
            </g>
            <polygon id="Path" fill="#FFFFFF" points="0 15.7321631 0 47.2678369 27.2258752 63 27.2258752 31.5356738"></polygon>
            <polygon id="Path" fill="#FC8721" points="39.8080682 55.6511891 54.4162076 47.2678369 54.4162076 15.7321631 39.8080682 24.1511891"></polygon>
            <polygon id="Path" fill="#FF6900" points="27.2258752 0 54.4162076 15.7321631 39.8080682 24.1511891 12.6177359 8.38335221"></polygon>
        </g>
    </g>
</svg>